<?xml version="1.0" standalone="no"?>
<!DOCTYPE svg PUBLIC "-//W3C//DTD SVG 20010904//EN"
 "http://www.w3.org/TR/2001/REC-SVG-20010904/DTD/svg10.dtd">
<svg version="1.0" xmlns="http://www.w3.org/2000/svg"
 width="360.000000pt" height="360.000000pt" viewBox="0 0 360.000000 360.000000"
 preserveAspectRatio="xMidYMid meet">

<g transform="translate(0.000000,360.000000) scale(0.100000,-0.100000)"
fill="#000000" stroke="none">
<path d="M925 2636 c-32 -14 -55 -51 -55 -90 0 -22 197 -562 224 -614 16 -30
50 -64 83 -81 12 -6 129 -27 260 -46 330 -49 323 -47 323 -90 0 -44 9 -42
-411 -105 -154 -23 -205 -42 -241 -90 -26 -36 -238 -609 -238 -646 0 -42 33
-82 74 -89 29 -6 135 44 887 418 617 306 861 432 877 452 26 33 28 81 6 113
-15 23 -1720 882 -1747 882 -6 -1 -26 -7 -42 -14z"/>
</g>
</svg>
