<?xml version="1.0" standalone="no"?>
<!DOCTYPE svg PUBLIC "-//W3C//DTD SVG 20010904//EN"
 "http://www.w3.org/TR/2001/REC-SVG-20010904/DTD/svg10.dtd">
<svg version="1.0" xmlns="http://www.w3.org/2000/svg"
 width="360.000000pt" height="360.000000pt" viewBox="0 0 360.000000 360.000000"
 preserveAspectRatio="xMidYMid meet">

<g transform="translate(0.000000,360.000000) scale(0.100000,-0.100000)"
fill="#000000" stroke="none">
<path d="M1580 3443 c-79 -10 -260 -53 -330 -78 -410 -146 -756 -455 -940
-839 -26 -56 -59 -133 -73 -171 -34 -97 -75 -283 -83 -382 l-7 -83 502 0 501
0 0 26 c0 14 11 58 24 98 67 197 203 335 408 412 66 25 86 27 203 27 114 0
139 -3 203 -26 104 -36 176 -82 252 -158 96 -96 154 -207 185 -351 l5 -28 495
0 495 0 0 48 c0 76 -37 264 -76 383 -43 133 -141 330 -220 440 -153 215 -375
404 -611 523 -132 66 -236 101 -438 146 -51 12 -431 22 -495 13z"/>
<path d="M154 1659 c26 -308 152 -619 354 -870 253 -314 619 -528 1020 -595
181 -30 424 -21 627 22 523 113 991 530 1174 1044 51 145 90 331 91 433 l0 47
-495 0 -495 0 -6 -27 c-19 -87 -29 -116 -65 -191 -78 -162 -245 -293 -429
-336 -243 -58 -507 40 -660 242 -53 71 -106 193 -117 267 l-6 45 -500 0 -500
0 7 -81z"/>
</g>
</svg>
